<svg width="56" height="56" viewBox="0 0 56 56" fill="none" xmlns="http://www.w3.org/2000/svg">
<g clip-path="url(#clip0_4744_2312)">
<path d="M51.9433 7.07839C50.1268 0.701062 41.7463 0.458031 40.4279 7.18755C39.917 10.2436 41.1768 13.7822 44.5525 14.4076C48.6692 15.3711 53.4862 11.4094 51.9433 7.07839ZM42.2643 9.10194C41.1977 2.66937 50.3062 2.94248 49.2175 9.11123C48.1397 11.5549 42.5955 12.6038 42.2643 9.10194Z" fill="#A79DCD"/>
<path d="M55.2859 26.24C54.9992 22.4339 55.5869 18.1727 50.6047 17.7411C49.1232 17.5854 47.6893 17.7575 46.3083 17.7222C44.1238 17.8326 44.2634 21.1411 46.4499 21.0632C47.9844 21.1481 51.4804 20.0155 52.07 21.7762C52.6855 26.2088 53.4974 31.1229 51.5066 35.2604C50.221 38.1285 47.7364 37.7486 47.7553 40.075C48.2696 45.0152 48.2752 49.9216 48.5653 54.8782C48.6827 56.56 51.278 56.2615 50.9777 54.5773C50.1484 49.7888 50.2532 44.8275 49.9054 40.0039C54.7517 37.3741 55.528 31.2042 55.2859 26.24ZM49.9289 39.8983C49.9288 39.8987 49.9284 39.8993 49.9283 39.8996C49.9337 39.8815 49.9376 39.8824 49.9289 39.8983Z" fill="#A79DCD"/>
<path d="M41.658 38.9092C41.3353 37.6604 39.6647 39.0539 38.462 37.3251C37.7154 36.3856 37.743 35.5803 37.7798 34.9477C37.965 34.6345 38.1194 34.3036 38.2304 33.952C38.9855 30.104 39.7222 26.3404 39.541 22.3388C39.3878 19.6676 38.2378 16.8005 35.8578 15.3173C34.5725 14.4964 32.2327 13.3254 31.3919 15.0336C27.2372 14.6491 22.5189 13.9214 19.6535 17.1559C17.2592 21.8407 15.9175 28.3996 17.8917 33.5721C17.8664 33.7385 17.8623 33.9188 17.8882 34.1149C18.0063 34.916 17.7249 35.87 17.2506 36.5551C16.1745 38.4801 13.9171 37.1275 13.9062 39.2708C14.2403 42.5954 14.3641 45.9702 14.4494 49.3234L14.5416 52.7042C14.5515 53.0813 14.8427 53.3994 15.2275 53.4337C15.6425 53.4708 16.0088 53.1638 16.0446 52.7487C16.1452 51.6221 16.2367 50.494 16.3148 49.3634C16.5198 46.3808 16.6474 43.4039 16.647 40.4048C18.3043 39.9611 19.6212 38.7861 20.4094 37.3118C20.8586 37.6312 21.3346 37.903 21.7293 38.1736C22.9019 42.8172 22.375 47.7662 23.1011 52.4903C23.235 53.5454 24.9029 53.5324 24.9824 52.4379C25.4635 47.3451 26.2824 42.0221 24.8653 36.9903C24.3978 35.4388 22.7049 35.1656 21.8119 34.1828C18.6349 30.2358 19.4725 24.4994 20.7318 19.9181C22.0354 15.4034 28.0866 16.8887 31.656 16.9356C31.869 17.1629 32.1472 17.334 32.4721 17.4144C39.0214 19.2845 36.1906 28.1333 35.8569 33.169C34.119 36.7175 31.5472 36.0546 31.4582 41.9762C31.3504 45.6549 32.4828 49.2986 31.6379 52.8894C31.5402 53.274 31.7602 53.673 32.1442 53.792C35.8595 52.9771 31.0312 39.9913 35.6517 37.268C35.7956 37.1484 35.9396 37.0253 36.0825 36.8989C36.5476 38.4598 37.726 39.8623 39.3242 40.3368C39.209 41.7364 37.5087 57.8761 41.1186 54.0252C43.2002 49.1682 41.487 43.9551 41.658 38.9092ZM21.8003 38.2354C21.834 38.264 21.8272 38.2698 21.7985 38.2339C21.7991 38.2343 21.7998 38.2349 21.8003 38.2354Z" fill="#A79DCD"/>
<path d="M9.37333 14.3114C12.9293 15.3163 16.9668 12.3583 16.634 8.56324C16.7623 2.41297 9.27227 1.13099 6.27988 5.98056C4.48055 8.89519 5.95416 13.4362 9.37333 14.3114ZM8.23146 9.31081C8.84932 4.92258 16.3346 5.31294 14.4676 10.4714C13.0796 13.4768 8.0068 12.9996 8.23146 9.31081Z" fill="#A79DCD"/>
<path d="M8.55845 18.8861C4.90182 18.8867 0.661025 20.0251 1.12467 24.5591C0.799056 29.9119 -0.946897 38.3642 5.64874 40.5708C5.67477 44.5343 5.32795 48.4967 4.74049 52.4155C4.67618 53.9849 7.15834 54.0668 7.17617 52.4788C7.30818 48.3311 7.69449 43.9069 7.7494 39.7511C7.75552 38.6818 6.60206 38.7217 5.87088 38.3824C1.19149 36.0704 3.72965 28.0743 3.93254 23.905C3.84121 21.5506 7.89006 22.2136 9.47982 22.1212C13.0678 22.5536 13.1777 17.9144 8.55845 18.8861Z" fill="#A79DCD"/>
<path d="M33.6126 5.85606C32.5975 -4.41294 18.5684 0.178404 23.9037 9.22262C27.0175 13.6922 34.0672 11.4365 33.6126 5.85606ZM26.8525 2.03067C31.6872 1.06675 32.6008 9.27731 27.3035 8.13369C24.1837 7.69619 23.6579 2.71755 26.8525 2.03067Z" fill="#A79DCD"/>
</g>
<defs>
<clipPath id="clip0_4744_2312">
<rect width="56" height="56" fill="white"/>
</clipPath>
</defs>
</svg>
