<svg width="56" height="56" viewBox="0 0 56 56" fill="none" xmlns="http://www.w3.org/2000/svg">
<g clip-path="url(#clip0_4744_2303)">
<path d="M54.3357 44.5711C56.0941 44.4809 56.0516 42.8261 55.9696 41.5019C55.9439 41.0592 55.9878 40.4778 55.9365 40.0396C55.7483 36.6892 53.5103 33.5847 50.4044 32.3329C47.2551 31.7117 44.0107 31.5108 40.8115 31.3123C37.3785 31.1326 33.8313 31.1824 30.3946 31.3547C27.615 31.5036 24.6381 31.3431 22.0219 32.5064C20.2939 33.5649 19.5713 35.1299 19.5895 36.7262C17.5847 34.7835 15.5801 32.8257 13.5031 30.9235C12.2675 29.787 10.9872 28.6455 9.70401 27.5586C9.32809 27.2454 8.78438 26.7523 8.36088 26.5188C5.57412 24.9302 1.98946 26.6606 0.647976 29.3482C-0.187758 30.9069 -0.305336 32.9942 0.833039 34.4501C5.53846 40.7226 11.6866 45.7178 17.7585 50.5732C21.7977 53.296 26.5277 54.9538 31.3612 55.4947C32.3411 55.5945 33.3727 55.6538 34.3595 55.6596C41.0009 55.5889 47.6825 55.3761 54.3135 54.9822C55.4837 54.8845 55.4694 53.1886 54.3135 53.0933C47.8948 52.5826 41.4025 52.4256 34.9673 52.3775C29.5846 52.3214 24.2177 50.8299 19.5918 48.0691C13.8169 43.8457 7.96571 39.6108 3.41451 34.0331C3.23098 33.8101 2.7856 33.2457 2.60841 33.0329C2.30796 32.6382 2.19673 32.147 2.23643 31.6476C2.39141 29.3991 5.01138 27.3222 7.19648 28.2578C7.39641 28.3484 7.56507 28.4788 7.74007 28.6164C9.24934 29.8462 10.7274 31.1186 12.1751 32.4182C15.5061 35.3953 18.6859 38.5363 21.9536 41.5982C22.1081 41.7442 22.2992 41.8267 22.4954 41.8489C23.0772 42.2389 23.7277 42.5394 24.4298 42.7181C28.4153 43.9098 32.5508 42.0544 36.5394 42.6362C36.9389 42.7035 37.3239 42.4405 37.4032 42.0392C37.6881 40.307 32.5167 41.0901 31.4603 41.0684C28.8594 41.2693 25.9849 41.7117 23.7043 40.2497C21.7115 38.9354 20.7607 35.8353 23.1384 34.48C25.1299 33.8188 27.2225 33.8719 29.3203 33.8606C36.0003 33.6783 42.7413 34.0114 49.3212 35.2037C55.4358 38.3898 50.4175 44.2696 54.3357 44.5711Z" fill="#A79DCD"/>
<path d="M14.1988 17.1498C15.5898 18.2722 17.2574 18.9931 19.0042 19.3258C19.5744 19.4382 21.1533 19.5873 21.7567 19.6597C22.8495 19.4648 23.8435 19.025 24.6981 18.4078C25.1393 18.9769 25.5572 19.5648 25.9403 20.1807C26.9466 21.775 27.7723 23.4288 28.6449 25.1359C29.1762 26.2557 30.8907 26.314 31.4869 25.2118C32.796 22.9636 34.181 20.7521 35.6957 18.6364C36.0109 18.8326 36.3474 19.0141 36.7085 19.1772C38.513 19.0364 41.4537 19.1627 43.1447 18.4784C47.8069 16.8452 50.0921 11.8096 51.021 7.30221C51.4018 5.49074 51.6049 3.65576 51.6707 1.81115C51.6951 1.16934 51.1732 0.631978 50.5307 0.638212C45.6634 0.646197 40.4309 1.2097 36.4102 4.25874C32.4463 7.02549 30.9872 12.5341 33.3209 16.2871C33.1611 16.4812 33.0033 16.6765 32.8493 16.8739C31.609 18.4636 30.6815 20.2539 29.8737 22.0877C29.0898 20.8732 28.3058 19.6193 27.4735 18.5154C27.0795 17.9708 26.6579 17.4484 26.2187 16.9404C27.274 15.5888 27.8804 13.8778 27.8513 12.0877C27.8059 8.93463 26.0071 6.0911 23.6688 4.15079C19.7336 0.974978 14.4076 0.379212 9.5325 0.340822C8.92547 0.339837 8.43262 0.83104 8.43164 1.43807C8.43514 3.32293 8.59319 5.19904 8.95084 7.05043C9.69459 10.802 11.1601 14.6449 14.1988 17.1498ZM37.7621 6.73456C40.9277 3.96288 45.2088 3.2444 49.3287 3.00367C49.0976 8.12307 47.7521 14.5305 42.8583 16.8249L40.2349 16.5813C40.2184 16.5797 40.2018 16.5787 40.1852 16.5783C39.4259 16.553 38.6619 16.446 37.9559 16.1745C37.8545 16.1369 37.7554 16.0943 37.6578 16.0486C38.4318 15.0895 39.2404 14.1578 40.0898 13.2603C40.7996 12.5428 39.9698 11.3042 39.0284 11.7052C37.7549 12.2444 36.6209 13.0094 35.5971 13.9066C35.4107 13.4823 35.2902 13.0278 35.2533 12.5602C35.0288 10.3553 36.0458 8.1386 37.7621 6.73456ZM24.8926 12.0691C24.8577 13.0468 24.5582 13.9304 24.0541 14.6479C23.06 13.6617 22.0394 12.7024 21.0637 11.7177C20.181 10.8474 18.8736 12.1363 19.7148 13.0319C20.6698 14.0064 21.6451 14.9664 22.5806 15.9596C22.0105 16.2686 21.3556 16.4606 20.6376 16.5052C20.1057 16.5446 18.515 16.6545 17.9552 16.7039C12.365 15.0677 10.7532 7.97574 10.6602 2.62534C14.3769 2.83643 18.179 3.45779 21.2541 5.63512C23.2666 7.12645 24.94 9.49693 24.8926 12.0691Z" fill="#A79DCD"/>
</g>
<defs>
<clipPath id="clip0_4744_2303">
<rect width="56" height="56" fill="white"/>
</clipPath>
</defs>
</svg>
