<svg width="56" height="56" viewBox="0 0 56 56" fill="none" xmlns="http://www.w3.org/2000/svg">
<g clip-path="url(#clip0_4744_2307)">
<path d="M12.1818 20.5935C14.4999 20.7892 14.7494 17.3987 12.4383 17.2439C11.4843 17.2127 10.6224 17.2906 9.80051 17.3625C8.36923 17.4501 6.61879 17.7644 5.21529 17.3836C6.7554 15.1486 8.51721 13.1174 10.4901 11.3244C11.9217 10.0221 13.4762 8.8759 15.101 7.83476C20.5767 4.40946 27.2097 2.56956 33.6566 3.68299C37.9148 4.37162 41.8647 6.44001 45.1449 9.20403C49.553 12.9483 52.2937 18.4094 53.0667 24.1102C53.2729 25.535 53.3718 26.9723 53.3345 28.4097C53.3446 29.6981 55.2349 29.6633 55.2288 28.3952C55.3269 22.9946 53.9923 17.5216 51.1372 12.9117C46.5177 5.59651 38.176 0.776134 29.5361 0.37615C18.7637 -0.127303 8.07895 6.58121 3.54371 16.2983C3.42285 16.1388 3.31184 15.9625 3.21439 15.7632C2.17018 13.317 2.72767 10.8387 2.48201 8.13937C2.3967 7.21034 1.02481 7.23615 0.971433 8.16693C0.899136 9.70999 0.599667 11.2942 0.545308 13.0256C0.501448 14.8998 0.779042 16.9249 2.06135 18.3935C4.60706 21.2559 8.87914 20.2594 12.1818 20.5935Z" fill="#A79DCD"/>
<path d="M55.9541 43.2474C55.7364 40.8115 54.1692 38.9232 51.9431 37.9925C50.3273 37.3073 48.5571 37.4748 46.8611 37.5717C45.9366 37.6127 44.8957 37.646 44.0589 37.4208C42.8449 37.1592 42.4346 38.956 43.6307 39.2548C44.9035 39.5836 46.2962 39.5592 47.5912 39.5742C48.6264 39.5996 49.7555 39.6095 50.6586 40.0419C49.4314 42.3344 47.935 44.4935 46.1182 46.3433C39.8202 52.6475 29.8687 54.6023 21.4046 52.4697C13.192 50.4963 6.63245 43.6314 4.31971 35.5998C3.66335 33.2823 3.33993 30.8169 3.35874 28.4091C3.36553 26.0967 -0.016021 26.1123 5.71535e-05 28.4091C0.0326509 29.9292 0.178229 31.5948 0.450354 33.0907C0.923948 35.7659 1.84128 38.4323 3.06945 40.8546C6.82232 48.1622 13.7842 53.7422 21.9448 55.152C28.7236 56.4129 35.9845 55.2764 41.9904 51.8682C46.3494 49.471 49.6596 45.4722 51.8681 41.0787C53.2329 43.0623 52.2315 46.6497 53.339 49.0698C53.6469 49.8934 54.9381 49.8446 55.1702 48.982C55.7217 47.1293 56.143 45.2351 55.9541 43.2474Z" fill="#A79DCD"/>
<path d="M37.7902 37.3179C39.3105 35.7984 39.6243 33.5593 39.6359 31.5201C39.6573 30.6325 39.6145 29.5341 39.7883 28.7335C40.4397 26.8747 38.8332 25.0241 36.882 25.6545C35.7807 25.9354 34.6607 26.1838 33.5683 26.5057C34.8325 24.0441 34.5578 20.7819 32.8489 18.5335C32.1343 17.2059 31.273 15.9086 30.4843 14.6338C30.3062 14.3518 30.0405 13.9887 30.0362 13.6636C30.0829 13.058 30.188 12.3352 29.6785 11.8253C29.0772 11.1533 28.045 11.096 27.373 11.6973C26.6493 12.3397 25.979 13.0411 25.3707 13.7982C23.0799 16.6961 21.6891 20.4073 22.0353 24.1302C22.0896 24.5719 22.1828 25.0144 22.3097 25.4504C21.1917 25.0732 20.0328 24.8135 18.8775 24.6632C17.8428 24.6125 16.2958 24.2434 15.3979 24.7997C14.5834 25.3441 14.4617 26.4717 15.0721 27.2185C16.8952 29.9999 14.8463 33.7812 17.7735 37.0265C19.9411 39.5421 23.9981 39.5404 26.5313 37.5778C26.5161 37.8458 26.502 38.1133 26.4904 38.3793C26.4442 40.0137 26.2216 41.7507 26.3687 43.4026C26.9754 45.5575 30.1506 44.7431 29.6537 42.5671C29.4265 41.6741 29.2772 40.7371 29.1669 39.7834C29.084 39.0875 29.019 38.36 28.9631 37.6433C31.5569 39.4253 35.4686 39.5982 37.7902 37.3179ZM37.6399 28.1007C37.6077 28.1113 37.5754 28.1161 37.5436 28.1173C37.5759 28.1119 37.6082 28.1063 37.6399 28.1007ZM27.9423 15.3279C28.3616 16.0413 28.9408 16.6916 29.4695 17.4804C29.9646 18.1989 30.5196 19.0015 30.9533 19.7442C31.8957 20.863 32.3991 22.3853 32.2669 23.8489C32.1629 25.3313 31.3535 26.6679 30.105 27.4483C29.4464 28.0368 28.7462 28.5927 27.9984 29.069C28.0094 29.0419 28.0241 29.0192 28.0444 28.9981C26.4243 27.801 25.393 25.8451 25.2776 23.8261C25.2725 20.8456 26.2541 17.8279 27.9423 15.3279ZM21.1051 35.5991C18.5736 34.0527 19.7969 30.2973 18.3053 27.1391C20.2513 27.1799 22.1858 27.6654 23.9237 28.5443C24.5729 29.3435 25.3646 30.0132 26.268 30.4703C26.5173 30.8405 26.7144 31.2417 26.8376 31.6582C26.8778 32.3173 26.8506 32.9731 26.7962 33.6321C26.7709 33.7 26.7438 33.7679 26.7128 33.8353C26.5051 34.5302 26.175 35.1985 25.7213 35.7672C25.2703 35.8292 24.4977 36.1357 23.9758 36.1381C22.9952 36.2331 21.9665 36.085 21.1051 35.5991ZM29.7298 35.8647C29.3617 35.2968 29.085 34.6567 28.9588 33.9922C28.4322 29.4822 33.417 28.7901 36.9164 28.2218C36.1208 30.7083 36.9063 34.1894 34.6629 35.6721C33.2507 36.6307 31.1939 36.8561 29.7298 35.8647Z" fill="#A79DCD"/>
</g>
<defs>
<clipPath id="clip0_4744_2307">
<rect width="56" height="56" fill="white"/>
</clipPath>
</defs>
</svg>
