<svg width="1440" height="391" viewBox="0 0 1440 391" fill="none" xmlns="http://www.w3.org/2000/svg">
<g style="mix-blend-mode:color-dodge" opacity="0.2">
<path d="M1065.58 158.344H1064.91C1051.57 164.571 1038.6 167.684 1025.99 167.684C1006.28 167.684 995.823 159.9 994.636 144.333C994.488 143.295 994.414 142.331 994.414 141.442C994.414 130.026 1001.9 122.39 1016.88 118.535C1025.77 116.608 1041.78 114.31 1064.91 111.641V92.0707C1064.91 85.8437 1064.17 80.5062 1062.69 76.0584C1061.21 71.6105 1059.58 68.3487 1057.8 66.2731C1056.02 64.0492 1053.72 62.3441 1050.9 61.158C1047.34 59.6754 1043.34 58.9341 1038.89 58.9341C1034.59 58.9341 1029.63 60.0461 1023.99 62.27C1015.84 65.68 1008.57 69.9796 1002.2 75.1688L1001.31 92.5154L997.083 93.6274V66.7179L999.307 65.8283C1010.87 60.7874 1019.69 57.748 1025.77 56.7102C1031.85 55.6724 1036.3 55.1534 1039.12 55.1534C1041.93 55.0052 1044.6 55.0052 1047.12 55.1534C1049.79 55.3017 1053.2 55.9689 1057.35 57.155C1061.5 58.3411 1065.06 60.0461 1068.03 62.27C1071.14 64.3457 1073.81 67.5333 1076.03 71.8329C1078.26 76.1325 1079.37 81.2475 1079.37 87.178V155.23C1079.37 159.826 1080.55 162.124 1082.93 162.124L1096.49 162.792L1096.27 166.127C1087.97 167.314 1080.55 167.907 1074.03 167.907C1072.25 167.758 1070.4 166.869 1068.47 165.238C1066.54 163.459 1065.58 161.161 1065.58 158.344ZM1030 164.126C1040.97 164.126 1052.61 160.271 1064.91 152.562V115.867C1042.67 116.608 1028.66 117.942 1022.88 119.87C1017.25 121.649 1013.32 124.54 1011.09 128.543C1009.02 132.398 1007.98 136.253 1007.98 140.108C1007.98 140.849 1007.98 141.59 1007.98 142.331C1008.42 150.041 1010.72 155.601 1014.87 159.011C1019.03 162.421 1024.07 164.126 1030 164.126ZM1040.23 32.6918L1036.67 34.4709L1010.43 1.55676L1017.1 0L1040.23 32.6918Z" fill="#F4F4F4"/>
</g>
<g style="mix-blend-mode:color-dodge" opacity="0.2">
<path d="M972.797 162.571L981.471 162.126L982.138 164.35C981.99 164.35 980.952 164.572 979.024 165.017C974.577 166.055 969.61 166.574 964.124 166.574C959.083 166.277 954.487 165.462 950.336 164.127C946.184 162.645 942.33 159.68 938.771 155.232C935.213 150.636 933.434 144.779 933.434 137.663V59.6027H922.092L923.871 57.8236L933.656 55.822L935.435 34.4723L947.889 33.3604V55.5996H974.799V59.6027H947.889V133.882C947.889 145.15 950.262 152.785 955.006 156.788C959.75 160.643 965.681 162.571 972.797 162.571Z" fill="#F4F4F4"/>
</g>
<g style="mix-blend-mode:color-dodge" opacity="0.2">
<path d="M898.555 64.7171V162.348L915.235 163.459C915.235 163.608 915.161 164.72 915.012 166.795L870.534 167.018C870.534 165.683 870.608 164.646 870.756 163.904L882.321 162.348C883.21 162.348 883.803 161.68 884.1 160.346V62.7155C883.803 61.6777 883.358 61.1588 882.765 61.1588L869.422 60.714L869.644 57.6005C877.65 56.2661 883.729 55.5989 887.881 55.5989C892.032 55.5989 894.849 56.5626 896.331 58.4901C897.814 60.4175 898.555 62.4931 898.555 64.7171ZM890.994 25.7983C888.029 25.7983 885.731 24.9087 884.1 23.1296C882.469 21.2022 881.653 18.7559 881.653 15.7906C881.653 12.6771 882.469 10.2308 884.1 8.45166C885.879 6.52425 888.251 5.56055 891.216 5.56055C894.182 5.56055 896.554 6.52425 898.333 8.45166C900.26 10.2308 901.224 12.7512 901.224 16.013C901.224 19.1265 900.26 21.5728 898.333 23.352C896.406 24.9829 893.959 25.7983 890.994 25.7983Z" fill="#F4F4F4"/>
</g>
<g style="mix-blend-mode:color-dodge" opacity="0.2">
<path d="M859.892 55.5986C859.892 55.7469 859.966 56.8589 860.114 58.9345L842.323 60.9361L799.624 166.795H786.28L747.584 62.7152C746.694 61.3808 745.582 60.5654 744.248 60.2689L732.683 59.1569L732.461 55.821L779.386 55.5986C779.386 55.7469 779.46 56.8589 779.608 58.9345L763.151 60.0465L798.067 162.125L834.539 63.6048C834.984 62.8635 834.688 62.1963 833.65 61.6032C832.76 60.8619 831.796 60.4171 830.759 60.2689L819.194 59.1569L818.972 55.821L859.892 55.5986Z" fill="#F4F4F4"/>
</g>
<g style="mix-blend-mode:color-dodge" opacity="0.2">
<path d="M712.866 64.7171V162.348L729.545 163.459C729.545 163.608 729.471 164.72 729.323 166.795L684.844 167.018C684.844 165.683 684.919 164.646 685.067 163.904L696.631 162.348C697.521 162.348 698.114 161.68 698.41 160.346V62.7155C698.114 61.6777 697.669 61.1588 697.076 61.1588L683.732 60.714L683.955 57.6005C691.961 56.2661 698.04 55.5989 702.191 55.5989C706.342 55.5989 709.159 56.5626 710.642 58.4901C712.125 60.4175 712.866 62.4931 712.866 64.7171ZM705.305 25.7983C702.339 25.7983 700.041 24.9087 698.41 23.1296C696.779 21.2022 695.964 18.7559 695.964 15.7906C695.964 12.6771 696.779 10.2308 698.41 8.45166C700.189 6.52425 702.562 5.56055 705.527 5.56055C708.492 5.56055 710.864 6.52425 712.644 8.45166C714.571 10.2308 715.535 12.7512 715.535 16.013C715.535 19.1265 714.571 21.5728 712.644 23.352C710.716 24.9829 708.27 25.7983 705.305 25.7983Z" fill="#F4F4F4"/>
</g>
<g style="mix-blend-mode:color-dodge" opacity="0.2">
<path d="M622.906 164.126C623.796 164.126 624.685 164.052 625.575 163.904C633.284 163.756 639.734 161.383 644.923 156.787C650.112 152.043 652.707 145.149 652.707 136.105C652.707 127.209 645.738 120.76 631.802 116.757C626.019 115.126 620.237 113.347 614.455 111.419C608.673 109.492 603.706 106.452 599.555 102.301C595.552 98.1497 593.55 92.7382 593.55 86.0664C593.55 76.5776 597.183 69.0163 604.447 63.3823C611.712 57.6001 620.904 54.709 632.024 54.709C640.327 54.709 648.704 56.1916 657.154 59.1568L661.158 60.7136V86.2888L656.932 87.8455L656.043 68.9421C647.443 62.1221 640.253 58.7121 634.47 58.7121C626.316 58.7121 619.867 61.1584 615.122 66.051C610.378 70.7954 608.006 77.1707 608.006 85.1768C608.006 89.7729 610.007 93.4795 614.01 96.2965C618.162 99.1134 623.128 101.337 628.911 102.968C634.693 104.599 640.475 106.452 646.257 108.528C652.039 110.455 656.932 113.717 660.935 118.313C665.086 122.761 667.162 128.618 667.162 135.882C667.162 145.668 663.456 153.451 656.043 159.234C648.778 164.868 638.399 167.685 624.908 167.685C611.416 167.685 600.222 164.497 591.326 158.122V132.546L595.329 130.99L596.441 149.893C598.517 153.748 602.223 157.084 607.561 159.901C613.047 162.718 618.162 164.126 622.906 164.126Z" fill="#F4F4F4"/>
</g>
<g style="mix-blend-mode:color-dodge" opacity="0.2">
<path d="M457.22 59.1569L456.998 55.821L487.021 55.5986V132.991C487.021 138.774 487.837 143.814 489.467 148.114C491.098 152.265 492.877 155.305 494.805 157.232C496.881 159.16 499.253 160.642 501.921 161.68C506.073 163.163 509.557 163.756 512.374 163.459C521.418 163.311 531.722 158.641 543.286 149.448V63.3824C542.693 61.6032 541.433 60.5654 539.506 60.2689L527.941 59.1569C527.793 58.2673 527.719 57.1554 527.719 55.821L557.742 55.5986V156.565C558.039 160.272 559.225 162.125 561.3 162.125L574.644 162.792L574.422 166.128C567.305 167.314 559.892 167.907 552.182 167.907C550.403 167.759 548.476 166.795 546.4 165.016C544.324 163.089 543.286 160.716 543.286 157.899V153.896C529.795 162.94 517.044 167.462 505.035 167.462C499.994 167.462 494.064 166.202 487.244 163.682C482.796 162.051 479.237 159.011 476.569 154.563C473.9 149.967 472.566 144.259 472.566 137.439V63.6048C472.566 62.8635 472.121 62.1963 471.231 61.6032C470.49 60.8619 469.674 60.4171 468.785 60.2689L457.22 59.1569Z" fill="#F4F4F4"/>
</g>
<g style="mix-blend-mode:color-dodge" opacity="0.2">
<path d="M403.159 167.017L403.381 163.904L414.946 162.347C415.984 162.199 416.651 161.457 416.947 160.123V8.00615C416.947 6.37527 416.502 5.55983 415.613 5.55983L402.047 5.11504L402.269 2.00154C411.61 0.667179 417.985 0 421.395 0C424.953 0 427.474 0.963703 428.956 2.89111C430.587 4.81852 431.403 6.89418 431.403 9.11811V162.347L448.082 163.459C448.082 163.607 448.008 164.719 447.86 166.795L403.159 167.017Z" fill="#F4F4F4"/>
</g>
<g style="mix-blend-mode:color-dodge" opacity="0.2">
<path d="M353.566 58.7128C340.963 58.7128 330.733 63.6795 322.875 73.6131C315.166 83.3984 311.311 97.335 311.311 115.423C311.311 147.596 323.543 163.682 348.006 163.682C357.643 163.682 365.871 162.793 372.691 161.013C379.512 159.086 383.218 157.9 383.811 157.455L385.368 159.902C381.958 162.125 376.324 163.979 368.466 165.461C360.608 166.944 353.492 167.685 347.116 167.685C340.741 167.685 334.959 167.018 329.77 165.684C324.58 164.349 319.317 161.977 313.98 158.567C308.791 155.157 304.639 149.82 301.526 142.555C298.412 135.142 296.855 126.172 296.855 115.645C296.855 96.223 301.822 81.5451 311.756 71.6115C322.875 60.1954 336.886 54.4873 353.788 54.4873C359.125 54.4873 364.759 55.2286 370.69 56.7112C376.769 58.0456 381.439 60.1954 384.701 63.1606V92.2941L380.475 93.8508L379.363 70.4996C376.101 67.0896 372.098 64.2726 367.354 62.0487C362.758 59.8247 358.162 58.7128 353.566 58.7128Z" fill="#F4F4F4"/>
</g>
<g style="mix-blend-mode:color-dodge" opacity="0.2">
<path d="M233.717 164.126C234.606 164.126 235.496 164.052 236.385 163.904C244.095 163.756 250.544 161.383 255.733 156.787C260.923 152.043 263.517 145.149 263.517 136.105C263.517 127.209 256.549 120.76 242.612 116.757C236.83 115.126 231.048 113.347 225.266 111.419C219.483 109.492 214.517 106.452 210.365 102.301C206.362 98.1497 204.361 92.7382 204.361 86.0664C204.361 76.5776 207.993 69.0163 215.258 63.3823C222.523 57.6001 231.715 54.709 242.835 54.709C251.137 54.709 259.514 56.1916 267.965 59.1568L271.968 60.7136V86.2888L267.743 87.8455L266.853 68.9421C258.254 62.1221 251.063 58.7121 245.281 58.7121C237.127 58.7121 230.677 61.1584 225.933 66.051C221.188 70.7954 218.816 77.1707 218.816 85.1768C218.816 89.7729 220.818 93.4795 224.821 96.2965C228.972 99.1134 233.939 101.337 239.721 102.968C245.503 104.599 251.286 106.452 257.068 108.528C262.85 110.455 267.743 113.717 271.746 118.313C275.897 122.761 277.973 128.618 277.973 135.882C277.973 145.668 274.266 153.451 266.853 159.234C259.588 164.868 249.21 167.685 235.718 167.685C222.226 167.685 211.032 164.497 202.137 158.122V132.546L206.14 130.99L207.252 149.893C209.327 153.748 213.034 157.084 218.371 159.901C223.857 162.718 228.972 164.126 233.717 164.126Z" fill="#F4F4F4"/>
</g>
<g style="mix-blend-mode:color-dodge" opacity="0.2">
<path d="M105.206 115.645C105.206 147.669 117.66 163.681 142.568 163.681C149.091 163.681 156.059 163.014 163.472 161.68C170.886 160.197 175.63 158.863 177.706 157.677L179.262 159.901C175.852 162.125 170.218 163.978 162.361 165.461C154.651 166.943 147.534 167.685 141.011 167.685C134.636 167.685 128.853 167.017 123.664 165.683C118.623 164.349 113.434 161.976 108.097 158.566C102.759 155.156 98.5337 149.819 95.4202 142.554C92.3067 135.289 90.75 126.394 90.75 115.867C90.75 96.2964 95.7909 81.322 105.873 70.9437C116.399 60.1205 128.631 54.709 142.568 54.709C156.504 54.709 167.105 58.5638 174.37 66.2734C181.783 73.983 185.489 84.8062 185.489 98.7428C185.489 101.708 185.267 104.896 184.822 108.306H105.428C105.28 109.937 105.206 112.383 105.206 115.645ZM172.368 97.186C172.368 86.0664 169.922 77.0224 165.029 70.0541C160.137 62.9375 153.465 59.3792 145.014 59.3792C134.042 59.3792 124.776 64.1977 117.215 73.8348C111.136 81.3961 107.355 91.4779 105.873 104.08H172.146C172.294 102.449 172.368 100.151 172.368 97.186Z" fill="#F4F4F4"/>
</g>
<g style="mix-blend-mode:color-dodge" opacity="0.2">
<path d="M64.0577 25.3515V18.2349C64.0577 13.194 63.9835 9.70982 63.8353 7.78242H61.6113L69.1727 7.11523C69.1727 9.1909 69.0986 11.2666 68.9503 13.3422C68.802 15.4179 68.6538 17.3453 68.5055 19.1245C68.5055 20.7553 68.4314 22.3121 68.2831 23.7947C68.1349 25.2773 67.9866 26.6117 67.8383 27.7978C67.6901 28.9839 67.5418 30.0217 67.3935 30.9113C67.2453 31.6526 67.097 32.468 66.9488 33.3576L63.8353 33.8024L64.0577 31.3561C64.0577 29.7252 64.0577 27.7236 64.0577 25.3515Z" fill="#F4F4F4"/>
</g>
<g style="mix-blend-mode:color-dodge" opacity="0.2">
<path d="M-3.29903 11.1201C-3.29903 11.2684 -3.2249 12.3803 -3.07664 14.456L-18.4217 15.7904V162.347H42.9587L47.4066 126.764L51.632 127.876L48.2961 166.795H-3.29903L-48 167.018L-47.7776 163.904L-36.2132 162.347C-34.7306 162.199 -33.841 161.235 -33.5445 159.456V18.6815C-33.841 16.9023 -34.7306 15.9386 -36.2132 15.7904L-47.7776 14.6784L-48 11.3425L-3.29903 11.1201Z" fill="#F4F4F4"/>
</g>
<g style="mix-blend-mode:color-dodge" opacity="0.2">
<path d="M1402.86 338.037C1402.86 370.062 1415.32 386.074 1440.22 386.074C1446.75 386.074 1453.72 385.407 1461.13 384.073C1468.54 382.59 1473.29 381.256 1475.36 380.069L1476.92 382.293C1473.51 384.517 1467.87 386.371 1460.02 387.853C1452.31 389.336 1445.19 390.077 1438.67 390.077C1432.29 390.077 1426.51 389.41 1421.32 388.076C1416.28 386.741 1411.09 384.369 1405.75 380.959C1400.42 377.549 1396.19 372.212 1393.08 364.947C1389.96 357.682 1388.41 348.786 1388.41 338.26C1388.41 318.689 1393.45 303.715 1403.53 293.336C1414.06 282.513 1426.29 277.102 1440.22 277.102C1454.16 277.102 1464.76 280.956 1472.03 288.666C1479.44 296.376 1483.15 307.199 1483.15 321.135C1483.15 324.101 1482.92 327.288 1482.48 330.698H1403.08C1402.94 332.329 1402.86 334.775 1402.86 338.037ZM1470.02 319.579C1470.02 308.459 1467.58 299.415 1462.69 292.447C1457.79 285.33 1451.12 281.772 1442.67 281.772C1431.7 281.772 1422.43 286.59 1414.87 296.227C1408.79 303.789 1405.01 313.871 1403.53 326.473H1469.8C1469.95 324.842 1470.02 322.544 1470.02 319.579Z" fill="#F4F4F4"/>
</g>
<g style="mix-blend-mode:color-dodge" opacity="0.2">
<path d="M1370.02 384.962L1378.69 384.517L1379.36 386.741C1379.21 386.741 1378.17 386.964 1376.25 387.409C1371.8 388.446 1366.83 388.965 1361.35 388.965C1356.31 388.669 1351.71 387.853 1347.56 386.519C1343.41 385.036 1339.55 382.071 1335.99 377.623C1332.44 373.027 1330.66 367.171 1330.66 360.054V281.994H1319.31L1321.09 280.215L1330.88 278.214L1332.66 256.864L1345.11 255.752V277.991H1372.02V281.994H1345.11V356.274C1345.11 367.541 1347.48 375.177 1352.23 379.18C1356.97 383.035 1362.9 384.962 1370.02 384.962Z" fill="#F4F4F4"/>
</g>
<g style="mix-blend-mode:color-dodge" opacity="0.2">
<path d="M1260.11 287.11V304.902C1271.82 287.703 1283.31 278.956 1294.58 278.659C1295.47 278.659 1296.36 278.659 1297.25 278.659L1309.71 280.216L1303.92 293.56C1301.11 290.743 1297.47 289.334 1293.03 289.334C1282.2 289.482 1271.23 296.673 1260.11 310.906V384.741L1279.02 385.853C1279.02 386.001 1278.94 387.113 1278.79 389.189L1232.09 389.411C1232.09 388.077 1232.16 387.039 1232.31 386.298L1243.88 384.741C1245.06 384.593 1245.66 383.555 1245.66 381.627V285.109C1245.36 284.071 1244.92 283.552 1244.32 283.552L1230.98 283.107L1231.2 279.994C1239.21 278.659 1245.29 277.992 1249.44 277.992C1253.59 277.992 1256.41 278.956 1257.89 280.883C1259.37 282.811 1260.11 284.886 1260.11 287.11Z" fill="#F4F4F4"/>
</g>
<g style="mix-blend-mode:color-dodge" opacity="0.2">
<path d="M1193.28 380.736H1192.61C1179.27 386.963 1166.3 390.077 1153.69 390.077C1133.97 390.077 1123.52 382.293 1122.34 366.725C1122.19 365.687 1122.11 364.724 1122.11 363.834C1122.11 352.418 1129.6 344.783 1144.57 340.928C1153.47 339 1169.48 336.702 1192.61 334.034V314.463C1192.61 308.236 1191.87 302.899 1190.39 298.451C1188.91 294.003 1187.27 290.741 1185.5 288.665C1183.72 286.441 1181.42 284.736 1178.6 283.55C1175.04 282.068 1171.04 281.326 1166.59 281.326C1162.29 281.326 1157.33 282.438 1151.69 284.662C1143.54 288.072 1136.27 292.372 1129.9 297.561L1129.01 314.908L1124.78 316.02V289.11L1127.01 288.221C1138.57 283.18 1147.39 280.14 1153.47 279.103C1159.55 278.065 1164 277.546 1166.81 277.546C1169.63 277.398 1172.3 277.398 1174.82 277.546C1177.49 277.694 1180.9 278.361 1185.05 279.547C1189.2 280.733 1192.76 282.438 1195.73 284.662C1198.84 286.738 1201.51 289.926 1203.73 294.225C1205.96 298.525 1207.07 303.64 1207.07 309.57V377.623C1207.07 382.219 1208.25 384.517 1210.63 384.517L1224.19 385.184L1223.97 388.52C1215.67 389.706 1208.25 390.299 1201.73 390.299C1199.95 390.151 1198.1 389.261 1196.17 387.63C1194.24 385.851 1193.28 383.553 1193.28 380.736ZM1157.7 386.518C1168.67 386.518 1180.31 382.663 1192.61 374.954V338.259C1170.37 339 1156.36 340.335 1150.58 342.262C1144.95 344.041 1141.02 346.932 1138.79 350.935C1136.72 354.79 1135.68 358.645 1135.68 362.5C1135.68 363.241 1135.68 363.982 1135.68 364.724C1136.12 372.433 1138.42 377.993 1142.57 381.403C1146.72 384.813 1151.77 386.518 1157.7 386.518Z" fill="#F4F4F4"/>
</g>
<g style="mix-blend-mode:color-dodge" opacity="0.2">
<path d="M1102.4 247.745V240.628C1102.4 235.588 1102.32 232.103 1102.17 230.176H1099.95L1107.51 229.509C1107.51 231.584 1107.44 233.66 1107.29 235.736C1107.14 237.811 1106.99 239.739 1106.84 241.518C1106.84 243.149 1106.77 244.706 1106.62 246.188C1106.47 247.671 1106.32 249.005 1106.18 250.191C1106.03 251.377 1105.88 252.415 1105.73 253.305C1105.58 254.046 1105.43 254.862 1105.29 255.751L1102.17 256.196L1102.4 253.75C1102.4 252.119 1102.4 250.117 1102.4 247.745Z" fill="#F4F4F4"/>
</g>
<g style="mix-blend-mode:color-dodge" opacity="0.2">
<path d="M1031.68 389.41L1031.9 386.296L1043.47 384.739C1044.51 384.591 1045.17 383.85 1045.47 382.515V230.399C1045.47 228.768 1045.03 227.952 1044.14 227.952L1030.57 227.508L1030.79 224.394C1040.13 223.06 1046.51 222.393 1049.92 222.393C1053.48 222.393 1056 223.356 1057.48 225.284C1059.11 227.211 1059.93 229.287 1059.93 231.511V384.739L1076.61 385.851C1076.61 386 1076.53 387.112 1076.38 389.187L1031.68 389.41Z" fill="#F4F4F4"/>
</g>
<g style="mix-blend-mode:color-dodge" opacity="0.2">
<path d="M972.391 389.41L972.614 386.296L984.178 384.739C985.216 384.591 985.883 383.85 986.18 382.515V230.399C986.18 228.768 985.735 227.952 984.845 227.952L971.279 227.508L971.502 224.394C980.842 223.06 987.217 222.393 990.627 222.393C994.186 222.393 996.706 223.356 998.189 225.284C999.82 227.211 1000.64 229.287 1000.64 231.511V384.739L1017.31 385.851C1017.31 386 1017.24 387.112 1017.09 389.187L972.391 389.41Z" fill="#F4F4F4"/>
</g>
<g style="mix-blend-mode:color-dodge" opacity="0.2">
<path d="M874.245 338.037C874.245 370.062 886.699 386.074 911.607 386.074C918.13 386.074 925.098 385.407 932.512 384.073C939.925 382.59 944.669 381.256 946.745 380.069L948.301 382.293C944.891 384.517 939.257 386.371 931.4 387.853C923.69 389.336 916.573 390.077 910.05 390.077C903.675 390.077 897.892 389.41 892.703 388.076C887.662 386.741 882.473 384.369 877.136 380.959C871.798 377.549 867.573 372.212 864.459 364.947C861.346 357.682 859.789 348.786 859.789 338.26C859.789 318.689 864.83 303.715 874.912 293.336C885.438 282.513 897.67 277.102 911.607 277.102C925.543 277.102 936.144 280.956 943.409 288.666C950.822 296.376 954.528 307.199 954.528 321.135C954.528 324.101 954.306 327.288 953.861 330.698H874.467C874.319 332.329 874.245 334.775 874.245 338.037ZM941.407 319.579C941.407 308.459 938.961 299.415 934.068 292.447C929.176 285.33 922.504 281.772 914.053 281.772C903.082 281.772 893.815 286.59 886.254 296.227C880.175 303.789 876.394 313.871 874.912 326.473H941.185C941.333 324.842 941.407 322.544 941.407 319.579Z" fill="#F4F4F4"/>
</g>
<g style="mix-blend-mode:color-dodge" opacity="0.2">
<path d="M821.736 231.511V377.623C821.736 382.219 822.922 384.517 825.295 384.517L838.638 385.184L838.416 388.52C831.299 389.706 823.886 390.299 816.176 390.299C814.546 390.151 812.766 389.336 810.839 387.853C809.06 386.37 808.022 384.443 807.726 382.071C799.275 387.408 789.489 390.077 778.37 390.077C767.547 390.077 757.539 387.037 748.347 380.959C743.157 377.549 738.932 372.211 735.67 364.946C732.557 357.533 731 348.563 731 338.037C731 318.615 735.967 303.788 745.9 293.558C756.427 282.587 768.436 277.101 781.928 277.101C790.231 277.101 798.682 279.251 807.281 283.551V230.399C807.281 228.768 806.836 227.952 805.946 227.952L792.38 227.508L792.603 224.394C801.943 223.06 808.319 222.393 811.729 222.393C815.287 222.393 817.807 223.356 819.29 225.284C820.921 227.211 821.736 229.287 821.736 231.511ZM781.261 386.074C790.305 386.074 798.978 384.072 807.281 380.069V287.109C800.757 283.106 794.308 281.104 787.933 281.104C775.182 281.104 764.878 285.997 757.02 295.782C749.31 305.568 745.456 319.578 745.456 337.814C745.456 369.987 757.391 386.074 781.261 386.074Z" fill="#F4F4F4"/>
</g>
</svg>
