<svg width="764" height="261" viewBox="0 0 764 261" fill="none" xmlns="http://www.w3.org/2000/svg">
<g style="mix-blend-mode:color-dodge" opacity="0.2">
<path d="M743.099 106.132H742.653C733.749 110.288 725.092 112.365 716.683 112.365C703.524 112.365 696.549 107.171 695.758 96.783C695.659 96.0904 695.609 95.4474 695.609 94.8537C695.609 87.2357 700.606 82.1405 710.598 79.5681C716.534 78.282 727.219 76.7484 742.653 74.9676V61.908C742.653 57.7527 742.159 54.191 741.169 51.2229C740.18 48.2549 739.092 46.0783 737.905 44.6932C736.717 43.2091 735.184 42.0714 733.304 41.2799C730.93 40.2905 728.258 39.7958 725.29 39.7958C722.421 39.7958 719.107 40.5379 715.347 42.0219C709.906 44.2974 705.058 47.1666 700.803 50.6293L700.21 62.2048L697.39 62.9469V44.99L698.874 44.3964C706.591 41.0325 712.478 39.0043 716.534 38.3118C720.591 37.6192 723.559 37.273 725.439 37.273C727.318 37.174 729.099 37.174 730.781 37.273C732.562 37.3719 734.838 37.8171 737.608 38.6086C740.378 39.4001 742.752 40.5379 744.731 42.0219C746.809 43.407 748.59 45.5341 750.074 48.4033C751.558 51.2724 752.3 54.6857 752.3 58.6432V104.055C752.3 107.122 753.091 108.655 754.674 108.655L763.727 109.101L763.578 111.327C758.038 112.118 753.091 112.514 748.738 112.514C747.551 112.415 746.314 111.821 745.028 110.733C743.742 109.546 743.099 108.012 743.099 106.132ZM719.354 109.991C726.675 109.991 734.442 107.419 742.653 102.274V77.7873C727.813 78.282 718.464 79.1724 714.605 80.4585C710.846 81.6458 708.224 83.575 706.74 86.2463C705.355 88.8186 704.662 91.391 704.662 93.9633C704.662 94.458 704.662 94.9527 704.662 95.4474C704.959 100.592 706.492 104.302 709.263 106.578C712.033 108.853 715.397 109.991 719.354 109.991ZM726.181 22.2842L723.806 23.4714L706.294 1.50758L710.747 0.46875L726.181 22.2842Z" fill="#F9F9F9"/>
</g>
<g style="mix-blend-mode:color-dodge" opacity="0.2">
<path d="M681.186 108.954L686.974 108.657L687.419 110.141C687.32 110.141 686.627 110.29 685.341 110.587C682.373 111.279 679.059 111.625 675.398 111.625C672.034 111.428 668.967 110.883 666.197 109.993C663.427 109.004 660.854 107.025 658.48 104.057C656.105 100.99 654.918 97.0819 654.918 92.3329V40.2431H647.35L648.537 39.0559L655.067 37.7203L656.254 23.4735L664.565 22.7314V37.5719H682.521V40.2431H664.565V89.8101C664.565 97.3292 666.147 102.424 669.313 105.096C672.479 107.668 676.437 108.954 681.186 108.954Z" fill="#F9F9F9"/>
</g>
<g style="mix-blend-mode:color-dodge" opacity="0.2">
<path d="M631.642 43.6552V108.805L642.772 109.547C642.772 109.646 642.723 110.388 642.624 111.773L612.943 111.921C612.943 111.031 612.993 110.338 613.092 109.843L620.809 108.805C621.402 108.805 621.798 108.359 621.996 107.469V42.3195C621.798 41.627 621.501 41.2807 621.105 41.2807L612.201 40.9839L612.35 38.9062C617.692 38.0158 621.749 37.5706 624.519 37.5706C627.289 37.5706 629.169 38.2137 630.158 39.4999C631.147 40.786 631.642 42.1711 631.642 43.6552ZM626.596 17.6845C624.618 17.6845 623.084 17.0908 621.996 15.9036C620.908 14.6174 620.363 12.985 620.363 11.0063C620.363 8.92862 620.908 7.29617 621.996 6.10894C623.183 4.82277 624.766 4.17969 626.745 4.17969C628.723 4.17969 630.306 4.82277 631.494 6.10894C632.78 7.29617 633.423 8.97808 633.423 11.1547C633.423 13.2323 632.78 14.8648 631.494 16.052C630.208 17.1403 628.575 17.6845 626.596 17.6845Z" fill="#F9F9F9"/>
</g>
<g style="mix-blend-mode:color-dodge" opacity="0.2">
<path d="M605.842 37.5703C605.842 37.6692 605.892 38.4113 605.991 39.7964L594.118 41.132L565.625 111.772H556.72L530.898 42.3192C530.305 41.4288 529.562 40.8847 528.672 40.6868L520.955 39.9448L520.807 37.7187L552.12 37.5703C552.12 37.6692 552.169 38.4113 552.268 39.7964L541.286 40.5384L564.586 108.656L588.924 42.9129C589.221 42.4182 589.023 41.973 588.33 41.5772C587.737 41.0825 587.094 40.7857 586.401 40.6868L578.684 39.9448L578.536 37.7187L605.842 37.5703Z" fill="#F9F9F9"/>
</g>
<g style="mix-blend-mode:color-dodge" opacity="0.2">
<path d="M507.73 43.6552V108.805L518.86 109.547C518.86 109.646 518.811 110.388 518.712 111.773L489.031 111.921C489.031 111.031 489.081 110.338 489.179 109.843L496.897 108.805C497.49 108.805 497.886 108.359 498.084 107.469V42.3195C497.886 41.627 497.589 41.2807 497.193 41.2807L488.289 40.9839L488.437 38.9062C493.78 38.0158 497.836 37.5706 500.607 37.5706C503.377 37.5706 505.257 38.2137 506.246 39.4999C507.235 40.786 507.73 42.1711 507.73 43.6552ZM502.684 17.6845C500.706 17.6845 499.172 17.0908 498.084 15.9036C496.995 14.6174 496.451 12.985 496.451 11.0063C496.451 8.92862 496.995 7.29617 498.084 6.10894C499.271 4.82277 500.854 4.17969 502.833 4.17969C504.811 4.17969 506.394 4.82277 507.582 6.10894C508.868 7.29617 509.511 8.97808 509.511 11.1547C509.511 13.2323 508.868 14.8648 507.582 16.052C506.295 17.1403 504.663 17.6845 502.684 17.6845Z" fill="#F9F9F9"/>
</g>
<g style="mix-blend-mode:color-dodge" opacity="0.2">
<path d="M447.7 109.991C448.294 109.991 448.888 109.942 449.481 109.843C454.626 109.744 458.93 108.161 462.392 105.094C465.855 101.928 467.586 97.3275 467.586 91.2924C467.586 85.3563 462.937 81.0526 453.637 78.3813C449.778 77.293 445.919 76.1058 442.061 74.8196C438.202 73.5334 434.888 71.5052 432.118 68.735C429.447 65.9648 428.111 62.3537 428.111 57.9015C428.111 51.5696 430.535 46.5239 435.383 42.7643C440.231 38.9058 446.365 36.9766 453.785 36.9766C459.325 36.9766 464.915 37.9659 470.555 39.9446L473.226 40.9835V58.0499L470.406 59.0888L469.813 46.4744C464.074 41.9234 459.276 39.6478 455.417 39.6478C449.976 39.6478 445.672 41.2803 442.506 44.5452C439.34 47.7111 437.757 51.9654 437.757 57.3079C437.757 60.3749 439.093 62.8483 441.764 64.7281C444.534 66.6079 447.849 68.0919 451.707 69.1802C455.566 70.2685 459.424 71.5052 463.283 72.8903C467.141 74.1765 470.406 76.3531 473.077 79.4201C475.848 82.3882 477.233 86.2962 477.233 91.1441C477.233 97.6738 474.759 102.868 469.813 106.726C464.965 110.486 458.039 112.366 449.036 112.366C440.033 112.366 432.563 110.239 426.627 105.984V88.918L429.298 87.8792L430.04 100.494C431.425 103.066 433.899 105.292 437.46 107.172C441.121 109.051 444.534 109.991 447.7 109.991Z" fill="#F9F9F9"/>
</g>
<g style="mix-blend-mode:color-dodge" opacity="0.2">
<path d="M337.139 39.9448L336.99 37.7187L357.025 37.5703V89.2149C357.025 93.0734 357.569 96.4373 358.657 99.3064C359.746 102.077 360.933 104.105 362.219 105.391C363.604 106.677 365.187 107.667 366.968 108.359C369.738 109.348 372.063 109.744 373.943 109.546C379.978 109.447 386.854 106.331 394.571 100.197V42.7645C394.175 41.5772 393.334 40.8847 392.048 40.6868L384.331 39.9448C384.232 39.3512 384.183 38.6091 384.183 37.7187L404.217 37.5703V104.946C404.415 107.419 405.207 108.656 406.592 108.656L415.496 109.101L415.348 111.327C410.599 112.119 405.652 112.514 400.507 112.514C399.32 112.415 398.034 111.772 396.649 110.585C395.264 109.299 394.571 107.716 394.571 105.836V103.165C385.568 109.2 377.059 112.218 369.046 112.218C365.682 112.218 361.724 111.377 357.173 109.695C354.205 108.606 351.831 106.578 350.05 103.61C348.269 100.543 347.379 96.7341 347.379 92.183V42.9129C347.379 42.4182 347.082 41.973 346.488 41.5772C345.993 41.0825 345.449 40.7857 344.856 40.6868L337.139 39.9448Z" fill="#F9F9F9"/>
</g>
<g style="mix-blend-mode:color-dodge" opacity="0.2">
<path d="M301.06 111.92L301.209 109.843L308.926 108.804C309.618 108.705 310.064 108.21 310.261 107.32V5.8113C310.261 4.723 309.965 4.17886 309.371 4.17886L300.318 3.88204L300.467 1.80439C306.7 0.913962 310.954 0.46875 313.23 0.46875C315.604 0.46875 317.286 1.11183 318.275 2.398C319.364 3.68417 319.908 5.06928 319.908 6.55332V108.804L331.038 109.546C331.038 109.645 330.989 110.387 330.89 111.772L301.06 111.92Z" fill="#F9F9F9"/>
</g>
<g style="mix-blend-mode:color-dodge" opacity="0.2">
<path d="M267.966 39.6488C259.557 39.6488 252.73 42.9631 247.486 49.5918C242.342 56.1216 239.769 65.4216 239.769 77.4918C239.769 98.9609 247.932 109.695 264.256 109.695C270.687 109.695 276.178 109.102 280.729 107.915C285.28 106.628 287.753 105.837 288.149 105.54L289.188 107.173C286.912 108.657 283.153 109.893 277.909 110.883C272.666 111.872 267.917 112.367 263.662 112.367C259.408 112.367 255.55 111.922 252.087 111.031C248.624 110.141 245.112 108.558 241.55 106.282C238.087 104.007 235.317 100.445 233.24 95.5971C231.162 90.6503 230.123 84.6647 230.123 77.6402C230.123 64.6796 233.437 54.8849 240.066 48.2562C247.486 40.6381 256.836 36.8291 268.114 36.8291C271.676 36.8291 275.436 37.3238 279.393 38.3131C283.45 39.2036 286.566 40.6381 288.743 42.6169V62.0578L285.923 63.0966L285.181 47.5142C283.004 45.2387 280.333 43.3589 277.167 41.8748C274.1 40.3908 271.033 39.6488 267.966 39.6488Z" fill="#F9F9F9"/>
</g>
<g style="mix-blend-mode:color-dodge" opacity="0.2">
<path d="M187.991 109.991C188.585 109.991 189.179 109.942 189.772 109.843C194.917 109.744 199.221 108.161 202.683 105.094C206.146 101.928 207.877 97.3275 207.877 91.2924C207.877 85.3563 203.228 81.0526 193.928 78.3813C190.069 77.293 186.211 76.1058 182.352 74.8196C178.493 73.5334 175.179 71.5052 172.409 68.735C169.738 65.9648 168.402 62.3537 168.402 57.9015C168.402 51.5696 170.826 46.5239 175.674 42.7643C180.522 38.9058 186.656 36.9766 194.076 36.9766C199.616 36.9766 205.206 37.9659 210.846 39.9446L213.517 40.9835V58.0499L210.697 59.0888L210.104 46.4744C204.365 41.9234 199.567 39.6478 195.708 39.6478C190.267 39.6478 185.963 41.2803 182.797 44.5452C179.631 47.7111 178.048 51.9654 178.048 57.3079C178.048 60.3749 179.384 62.8483 182.055 64.7281C184.825 66.6079 188.14 68.0919 191.998 69.1802C195.857 70.2685 199.715 71.5052 203.574 72.8903C207.432 74.1765 210.697 76.3531 213.368 79.4201C216.139 82.3882 217.524 86.2962 217.524 91.1441C217.524 97.6738 215.05 102.868 210.104 106.726C205.256 110.486 198.33 112.366 189.327 112.366C180.324 112.366 172.854 110.239 166.918 105.984V88.918L169.589 87.8792L170.331 100.494C171.716 103.066 174.19 105.292 177.751 107.172C181.412 109.051 184.825 109.991 187.991 109.991Z" fill="#F9F9F9"/>
</g>
<g style="mix-blend-mode:color-dodge" opacity="0.2">
<path d="M102.236 77.6393C102.236 99.0095 110.547 109.695 127.168 109.695C131.521 109.695 136.171 109.249 141.118 108.359C146.065 107.37 149.231 106.479 150.616 105.688L151.655 107.172C149.379 108.656 145.62 109.892 140.376 110.882C135.231 111.871 130.482 112.366 126.129 112.366C121.875 112.366 118.016 111.921 114.554 111.03C111.19 110.14 107.727 108.557 104.165 106.281C100.604 104.006 97.784 100.444 95.7063 95.5962C93.6287 90.7483 92.5898 84.8121 92.5898 77.7877C92.5898 64.7281 95.9537 54.7356 102.681 47.8101C109.706 40.5877 117.868 36.9766 127.168 36.9766C136.468 36.9766 143.542 39.5489 148.39 44.6936C153.337 49.8382 155.81 57.0606 155.81 66.3606C155.81 68.3393 155.662 70.4664 155.365 72.7419H102.385C102.286 73.8302 102.236 75.4627 102.236 77.6393ZM147.054 65.3217C147.054 57.9015 145.422 51.8664 142.157 47.2164C138.892 42.4675 134.44 40.093 128.8 40.093C121.479 40.093 115.296 43.3085 110.25 49.7393C106.194 54.785 103.671 61.5127 102.681 69.9223H146.906C147.005 68.834 147.054 67.3005 147.054 65.3217Z" fill="#F9F9F9"/>
</g>
<g style="mix-blend-mode:color-dodge" opacity="0.2">
<path d="M74.7789 17.3859V12.637C74.7789 9.27318 74.7295 6.94818 74.6305 5.66201H73.1465L78.1922 5.2168C78.1922 6.6019 78.1428 7.98701 78.0438 9.37211C77.9449 10.7572 77.8459 12.0434 77.747 13.2306C77.747 14.3189 77.6975 15.3577 77.5986 16.3471C77.4997 17.3365 77.4007 18.2269 77.3018 19.0184C77.2029 19.8099 77.1039 20.5024 77.005 21.096C76.9061 21.5907 76.8071 22.1349 76.7082 22.7285L74.6305 23.0253L74.7789 21.3928C74.7789 20.3046 74.7789 18.9689 74.7789 17.3859Z" fill="#F9F9F9"/>
</g>
<g style="mix-blend-mode:color-dodge" opacity="0.2">
<path d="M29.8292 7.88965C29.8292 7.98858 29.8787 8.7306 29.9776 10.1157L19.7377 11.0061V108.804H60.6973L63.6653 85.0598L66.485 85.8018L64.259 111.773H29.8292L0 111.921L0.148404 109.843L7.86542 108.804C8.85478 108.705 9.44839 108.062 9.64626 106.875V12.9354C9.44839 11.7482 8.85478 11.1051 7.86542 11.0061L0.148404 10.2641L0 8.03805L29.8292 7.88965Z" fill="#F9F9F9"/>
</g>
<g style="mix-blend-mode:color-dodge" opacity="0.2">
<path d="M705.265 226.043C705.265 247.413 713.576 258.098 730.197 258.098C734.55 258.098 739.2 257.653 744.147 256.762C749.094 255.773 752.26 254.882 753.645 254.091L754.684 255.575C752.408 257.059 748.649 258.296 743.405 259.285C738.261 260.274 733.512 260.769 729.158 260.769C724.904 260.769 721.046 260.324 717.583 259.434C714.219 258.543 710.756 256.96 707.195 254.685C703.633 252.409 700.813 248.847 698.736 243.999C696.658 239.152 695.619 233.215 695.619 226.191C695.619 213.131 698.983 203.139 705.711 196.213C712.735 188.991 720.897 185.38 730.197 185.38C739.497 185.38 746.571 187.952 751.419 193.097C756.366 198.242 758.839 205.464 758.839 214.764C758.839 216.743 758.691 218.87 758.394 221.145H705.414C705.315 222.234 705.265 223.866 705.265 226.043ZM750.083 213.725C750.083 206.305 748.451 200.27 745.186 195.62C741.921 190.871 737.469 188.496 731.83 188.496C724.508 188.496 718.325 191.712 713.279 198.143C709.223 203.188 706.7 209.916 705.711 218.326H749.935C750.034 217.237 750.083 215.704 750.083 213.725Z" fill="#F9F9F9"/>
</g>
<g style="mix-blend-mode:color-dodge" opacity="0.2">
<path d="M683.35 257.357L689.138 257.06L689.583 258.544C689.484 258.544 688.791 258.692 687.505 258.989C684.537 259.682 681.223 260.028 677.562 260.028C674.198 259.83 671.131 259.286 668.361 258.395C665.591 257.406 663.018 255.427 660.644 252.459C658.27 249.392 657.082 245.484 657.082 240.735V188.645H649.514L650.701 187.458L657.231 186.123L658.418 171.876L666.729 171.134V185.974H684.685V188.645H666.729V238.212C666.729 245.732 668.312 250.827 671.477 253.498C674.643 256.07 678.601 257.357 683.35 257.357Z" fill="#F9F9F9"/>
</g>
<g style="mix-blend-mode:color-dodge" opacity="0.2">
<path d="M610.005 192.059V203.931C617.821 192.455 625.489 186.618 633.008 186.42C633.602 186.42 634.195 186.42 634.789 186.42L643.1 187.459L639.241 196.363C637.361 194.483 634.937 193.543 631.969 193.543C624.747 193.642 617.426 198.441 610.005 207.938V257.209L622.62 257.951C622.62 258.05 622.57 258.792 622.471 260.177L591.306 260.325C591.306 259.435 591.356 258.742 591.455 258.247L599.172 257.209C599.963 257.11 600.359 256.417 600.359 255.131V190.724C600.161 190.031 599.864 189.685 599.469 189.685L590.564 189.388L590.713 187.31C596.055 186.42 600.112 185.975 602.882 185.975C605.652 185.975 607.532 186.618 608.521 187.904C609.511 189.19 610.005 190.575 610.005 192.059Z" fill="#F9F9F9"/>
</g>
<g style="mix-blend-mode:color-dodge" opacity="0.2">
<path d="M565.409 254.536H564.964C556.06 258.692 547.403 260.769 538.993 260.769C525.835 260.769 518.86 255.575 518.068 245.187C517.969 244.494 517.92 243.851 517.92 243.258C517.92 235.639 522.916 230.544 532.909 227.972C538.845 226.686 549.53 225.152 564.964 223.371V210.312C564.964 206.157 564.469 202.595 563.48 199.627C562.491 196.659 561.402 194.482 560.215 193.097C559.028 191.613 557.494 190.475 555.615 189.684C553.24 188.694 550.569 188.2 547.601 188.2C544.732 188.2 541.417 188.942 537.658 190.426C532.216 192.701 527.368 195.57 523.114 199.033L522.52 210.609L519.701 211.351V193.394L521.185 192.8C528.902 189.436 534.789 187.408 538.845 186.716C542.901 186.023 545.869 185.677 547.749 185.677C549.629 185.578 551.41 185.578 553.092 185.677C554.873 185.776 557.148 186.221 559.918 187.012C562.688 187.804 565.063 188.942 567.042 190.426C569.119 191.811 570.9 193.938 572.384 196.807C573.868 199.676 574.61 203.089 574.61 207.047V252.459C574.61 255.526 575.402 257.059 576.985 257.059L586.037 257.504L585.889 259.73C580.349 260.522 575.402 260.918 571.049 260.918C569.861 260.819 568.625 260.225 567.339 259.137C566.052 257.95 565.409 256.416 565.409 254.536ZM541.665 258.395C548.986 258.395 556.752 255.822 564.964 250.678V226.191C550.124 226.686 540.774 227.576 536.916 228.862C533.156 230.05 530.534 231.979 529.05 234.65C527.665 237.222 526.973 239.795 526.973 242.367C526.973 242.862 526.973 243.356 526.973 243.851C527.269 248.996 528.803 252.706 531.573 254.981C534.343 257.257 537.707 258.395 541.665 258.395Z" fill="#F9F9F9"/>
</g>
<g style="mix-blend-mode:color-dodge" opacity="0.2">
<path d="M504.761 165.791V161.042C504.761 157.678 504.712 155.353 504.613 154.067H503.129L508.175 153.622C508.175 155.007 508.125 156.392 508.026 157.777C507.927 159.162 507.828 160.449 507.729 161.636C507.729 162.724 507.68 163.763 507.581 164.752C507.482 165.742 507.383 166.632 507.284 167.424C507.185 168.215 507.086 168.908 506.987 169.501C506.888 169.996 506.79 170.54 506.691 171.134L504.613 171.431L504.761 169.798C504.761 168.71 504.761 167.374 504.761 165.791Z" fill="#F9F9F9"/>
</g>
<g style="mix-blend-mode:color-dodge" opacity="0.2">
<path d="M457.576 260.325L457.724 258.248L465.441 257.209C466.134 257.11 466.579 256.615 466.777 255.725V154.217C466.777 153.128 466.48 152.584 465.887 152.584L456.834 152.287L456.982 150.21C463.215 149.319 467.47 148.874 469.745 148.874C472.12 148.874 473.802 149.517 474.791 150.803C475.879 152.089 476.423 153.475 476.423 154.959V257.209L487.554 257.951C487.554 258.05 487.504 258.792 487.405 260.177L457.576 260.325Z" fill="#F9F9F9"/>
</g>
<g style="mix-blend-mode:color-dodge" opacity="0.2">
<path d="M418.01 260.325L418.158 258.248L425.875 257.209C426.568 257.11 427.013 256.615 427.211 255.725V154.217C427.211 153.128 426.914 152.584 426.32 152.584L417.268 152.287L417.416 150.21C423.649 149.319 427.903 148.874 430.179 148.874C432.553 148.874 434.235 149.517 435.224 150.803C436.313 152.089 436.857 153.475 436.857 154.959V257.209L447.987 257.951C447.987 258.05 447.938 258.792 447.839 260.177L418.01 260.325Z" fill="#F9F9F9"/>
</g>
<g style="mix-blend-mode:color-dodge" opacity="0.2">
<path d="M352.515 226.043C352.515 247.413 360.826 258.098 377.447 258.098C381.8 258.098 386.45 257.653 391.397 256.762C396.344 255.773 399.51 254.882 400.895 254.091L401.934 255.575C399.658 257.059 395.899 258.296 390.655 259.285C385.511 260.274 380.762 260.769 376.408 260.769C372.154 260.769 368.296 260.324 364.833 259.434C361.469 258.543 358.006 256.96 354.445 254.685C350.883 252.409 348.063 248.847 345.986 243.999C343.908 239.152 342.869 233.215 342.869 226.191C342.869 213.131 346.233 203.139 352.961 196.213C359.985 188.991 368.147 185.38 377.447 185.38C386.747 185.38 393.821 187.952 398.669 193.097C403.616 198.242 406.089 205.464 406.089 214.764C406.089 216.743 405.941 218.87 405.644 221.145H352.664C352.565 222.234 352.515 223.866 352.515 226.043ZM397.333 213.725C397.333 206.305 395.701 200.27 392.436 195.62C389.171 190.871 384.719 188.496 379.08 188.496C371.758 188.496 365.575 191.712 360.529 198.143C356.473 203.188 353.95 209.916 352.961 218.326H397.185C397.284 217.237 397.333 215.704 397.333 213.725Z" fill="#F9F9F9"/>
</g>
<g style="mix-blend-mode:color-dodge" opacity="0.2">
<path d="M317.477 154.959V252.46C317.477 255.527 318.268 257.061 319.851 257.061L328.755 257.506L328.607 259.732C323.858 260.523 318.911 260.919 313.766 260.919C312.678 260.82 311.491 260.276 310.205 259.287C309.018 258.297 308.325 257.011 308.127 255.428C302.488 258.99 295.958 260.771 288.538 260.771C281.315 260.771 274.637 258.743 268.503 254.686C265.04 252.411 262.221 248.849 260.044 244.001C257.967 239.054 256.928 233.069 256.928 226.044C256.928 213.084 260.242 203.19 266.871 196.363C273.895 189.042 281.909 185.381 290.912 185.381C296.453 185.381 302.092 186.816 307.83 189.685V154.217C307.83 153.128 307.534 152.584 306.94 152.584L297.887 152.287L298.036 150.21C304.269 149.319 308.523 148.874 310.798 148.874C313.173 148.874 314.855 149.517 315.844 150.803C316.932 152.089 317.477 153.475 317.477 154.959ZM290.467 258.099C296.502 258.099 302.29 256.764 307.83 254.093V192.06C303.477 189.388 299.173 188.053 294.919 188.053C286.411 188.053 279.535 191.318 274.291 197.847C269.146 204.377 266.574 213.727 266.574 225.896C266.574 247.365 274.538 258.099 290.467 258.099Z" fill="#F9F9F9"/>
</g>
</svg>
