<svg width="243" height="154" viewBox="0 0 243 154" fill="none" xmlns="http://www.w3.org/2000/svg">
<path d="M47.2949 113.435H24.1016V106.347C30.2688 106.214 33.3524 106.158 39.5385 106.044C39.444 76.4994 39.4061 61.7175 39.3304 32.1538C33.22 33.3446 30.1742 33.9873 24.1016 35.405V14.1395C33.1443 11.4554 37.7035 10.2645 46.8976 8.2041C46.8976 11.2096 46.8976 12.7218 46.9165 15.7274C40.7871 16.9938 37.7413 17.7121 31.6687 19.2433C31.6687 22.1354 31.6687 23.5909 31.6687 26.483C37.7413 25.0653 40.806 24.4226 46.9354 23.2506C47.0489 53.3248 47.1624 83.38 47.2759 113.454L47.2949 113.435Z" fill="white"/>
<path d="M61.5218 113.435C61.3704 77.4066 61.2191 41.3782 61.0488 5.34968C70.2997 3.68624 74.9724 3.00575 84.3178 2.00391C84.3178 5.17955 84.3178 6.78628 84.3367 9.96193C78.1127 10.5857 75.0102 10.9827 68.8052 11.8711C68.8052 14.99 68.8241 16.559 68.843 19.6779C75.0291 18.8462 78.1506 18.5059 84.3556 17.9199C84.3556 21.0956 84.3556 22.7023 84.3746 25.878C78.1506 26.4072 75.0481 26.7286 68.8619 27.4847C68.9943 58.7308 69.07 74.3633 69.2024 105.609C75.3886 105.534 78.4722 105.515 84.6583 105.458C84.6583 108.634 84.6583 110.241 84.6772 113.416H61.4839L61.5218 113.435Z" fill="white"/>
<path d="M122.114 105.344C122.114 108.596 122.114 110.202 122.114 113.454H98.9211C98.8265 75.8941 98.7508 38.3156 98.6562 0.75605C101.778 0.548121 103.348 0.453608 106.469 0.321289C106.526 35.3479 106.583 70.3557 106.64 105.363C112.826 105.344 115.928 105.344 122.114 105.344Z" fill="white"/>
<path d="M136.342 113.435C136.399 75.7244 136.455 38.0135 136.531 0.302734C145.914 0.718593 150.606 1.07774 159.951 2.13629C159.819 39.2422 159.686 76.3481 159.554 113.435H151.817C151.911 84.0793 152.006 54.7235 152.081 25.3677C148.96 25.1408 147.409 25.0463 144.287 24.8951C144.212 54.4211 144.155 83.9281 144.079 113.435H136.342ZM144.325 8.79003C144.325 12.0035 144.325 13.8181 144.325 17.0505C147.447 17.2206 148.998 17.334 152.119 17.5798C152.119 14.3852 152.119 12.5706 152.119 9.35711C148.998 9.09247 147.447 8.97906 144.325 8.79003Z" fill="white"/>
<path d="M181.479 113.436C179.039 76.9724 176.617 40.5091 174.215 4.0459C177.317 4.51847 178.85 4.7831 181.952 5.33128C183.409 27.2206 184.128 38.1085 185.584 59.7331C187.211 38.4109 188.044 27.8065 189.652 6.80569C192.735 7.42947 194.268 7.76972 197.314 8.45022C194.589 43.439 191.903 78.4279 189.198 113.417H181.46L181.479 113.436Z" fill="white"/>
<path d="M211.162 113.435C211.219 79.6184 211.276 45.7827 211.332 11.9658C214.359 12.7975 215.873 13.2323 218.9 14.1207V113.435H211.162Z" fill="white"/>
<path d="M17.3097 149.009C17.1394 149.898 16.5719 152.544 16.2881 153.376H3.66992V152.601C5.99682 152.412 6.20492 152.223 6.20492 149.879V139.01C6.20492 136.666 6.01574 136.534 3.78343 136.364V135.551H11.1614V136.364C8.94801 136.496 8.70207 136.628 8.70207 139.01V149.803C8.70207 151.259 8.8345 151.807 9.34528 152.072C9.8939 152.374 10.802 152.431 11.9559 152.431C13.4315 152.431 14.3774 152.261 15.0396 151.599C15.5314 151.051 16.0422 150.163 16.4962 148.896L17.3097 149.028V149.009Z" fill="white"/>
<path d="M17.0253 133.906C18.2171 133.906 19.6738 134.984 19.6738 136.761C19.6738 138.726 17.8199 139.974 16.0227 140.409L15.7578 139.653C17.0821 139.086 17.9144 138.443 17.9144 137.328C17.9144 136.364 17.101 135.759 16.1551 135.607C15.9848 135.589 15.7956 135.4 15.7956 135.022C15.7956 134.303 16.4956 133.925 16.9875 133.925H17.0064L17.0253 133.906Z" fill="white"/>
<path d="M30.5524 150.995C28.793 153.206 26.8634 153.698 25.9932 153.698C22.5879 153.698 20.6016 150.976 20.6016 147.876C20.6016 146.023 21.2826 144.341 22.4177 143.093C23.5527 141.827 25.0662 141.052 26.485 141.052H26.5039C28.8308 141.052 30.6848 143.093 30.6848 145.286C30.6659 145.834 30.5524 146.042 30.0416 146.155C29.5497 146.231 26.1256 146.496 22.8528 146.609C22.9095 150.257 25.0094 151.77 26.958 151.77C28.0741 151.77 29.1146 151.335 30.1172 150.427L30.5524 151.013V150.995ZM25.804 142.091C24.6122 142.091 23.4014 143.207 23.023 145.456C24.5176 145.456 26.0121 145.437 27.5633 145.38C28.0552 145.38 28.2065 145.248 28.2444 144.832C28.2444 143.396 27.3174 142.073 25.8418 142.073H25.8229L25.804 142.091Z" fill="white"/>
<path d="M40.1806 144.662C39.632 143.037 38.6861 141.959 37.343 141.959C36.2836 141.959 35.5836 142.715 35.5836 143.793C35.5836 144.946 36.6619 145.626 37.8727 146.118C39.9725 146.949 41.3914 147.951 41.3914 149.898C41.3914 152.412 39.0456 153.698 36.8322 153.698C35.3944 153.698 34.108 153.187 33.6161 152.809C33.427 152.412 33.181 150.484 33.1621 149.463L33.9188 149.35C34.4107 151.184 35.6403 152.771 37.324 152.771C38.2888 152.771 39.2347 152.015 39.2347 150.919C39.2347 149.728 38.478 149.104 37.0781 148.443C35.4323 147.724 33.5972 146.779 33.5972 144.643C33.5972 142.696 35.2431 141.052 37.8159 141.052C39.0077 141.052 39.7266 141.297 40.332 141.562C40.5779 142.148 40.8806 143.83 40.9184 144.473L40.1996 144.662H40.1806Z" fill="white"/>
<path d="M54.4645 150.862C53.2538 152.506 51.3809 153.697 49.7729 153.697C46.2353 153.697 44.1543 150.918 44.1543 147.97C44.1543 145.871 45.0813 144.038 46.9352 142.601C48.4108 141.524 50.0945 141.032 51.1161 141.032H51.135C52.2701 141.032 53.216 141.41 53.6132 141.788C53.9916 142.091 54.0673 142.299 54.0673 142.62C54.0673 143.206 53.443 143.83 53.1214 143.83C52.9511 143.83 52.8187 143.754 52.5727 143.527C51.7404 142.715 50.7377 142.374 49.7918 142.374C48.0325 142.374 46.4623 143.83 46.4623 146.722C46.4623 150.502 49.1108 151.731 50.6242 151.731C51.816 151.731 52.7052 151.429 53.9727 150.257L54.4267 150.843L54.4645 150.862Z" fill="white"/>
<path d="M55.7695 153.376V152.639C57.4911 152.469 57.737 152.299 57.737 150.446V137.555C57.737 135.702 57.5667 135.645 55.8452 135.475V134.795C57.3019 134.625 59.0612 134.209 60.0639 133.85V150.446C60.0639 152.299 60.272 152.507 62.0692 152.639V153.376H55.7695Z" fill="white"/>
<path d="M77.2036 152.733C76.6172 152.809 75.8226 152.979 75.0659 153.168C74.3092 153.357 73.6092 153.565 73.0606 153.716L72.8714 153.546V151.599C72.2282 152.053 71.6607 152.563 70.8472 152.998C70.0716 153.451 69.4662 153.697 68.7095 153.697C66.8177 153.697 65.2475 152.563 65.2475 149.595V144.284C65.2475 142.828 65.0016 142.658 64.3206 142.526L63.5449 142.337V141.694C64.1314 141.675 64.8503 141.618 65.6259 141.486C66.3826 141.41 67.1393 141.297 67.6501 141.184C67.5744 142.072 67.5744 143.376 67.5744 145.21V148.896C67.5744 151.278 68.7095 151.939 69.9581 151.939C70.9229 151.939 71.9634 151.542 72.8714 150.673V144.284C72.8714 142.79 72.6066 142.658 71.7174 142.507L70.7526 142.337V141.694C71.5283 141.675 72.4742 141.581 73.2876 141.486C74.0633 141.41 74.7821 141.297 75.1794 141.184V150.295C75.1794 151.693 75.4253 151.882 76.4469 151.939L77.2036 151.996V152.714V152.733Z" fill="white"/>
<path d="M86.3213 144.662C85.7727 143.037 84.8268 141.959 83.4836 141.959C82.4242 141.959 81.7242 142.715 81.7242 143.793C81.7242 144.946 82.8025 145.626 84.0133 146.118C86.1132 146.949 87.532 147.951 87.532 149.898C87.532 152.412 85.1862 153.698 82.9728 153.698C81.535 153.698 80.2486 153.187 79.7568 152.809C79.5676 152.412 79.3217 150.484 79.3027 149.463L80.0595 149.35C80.5513 151.184 81.781 152.771 83.4647 152.771C84.4295 152.771 85.3754 152.015 85.3754 150.919C85.3754 149.728 84.6187 149.104 83.2187 148.443C81.5729 147.724 79.7379 146.779 79.7379 144.643C79.7379 142.696 81.3837 141.052 83.9565 141.052C85.1484 141.052 85.8672 141.297 86.4726 141.562C86.7185 142.148 87.0212 143.83 87.0591 144.473L86.3402 144.662H86.3213Z" fill="white"/>
<path d="M89.8984 153.376V152.639C91.62 152.469 91.847 152.318 91.847 150.428V144.813C91.847 143.112 91.7335 142.98 90.1444 142.734V142.054C91.5443 141.846 92.9253 141.468 94.136 140.976V150.428C94.136 152.28 94.3252 152.469 96.1035 152.639V153.376H89.8984ZM91.3551 137.271C91.3551 136.44 92.0551 135.797 92.8496 135.797C93.6442 135.797 94.2874 136.44 94.2874 137.271C94.2874 138.046 93.6631 138.727 92.8307 138.727C92.074 138.727 91.374 138.046 91.374 137.271H91.3551Z" fill="white"/>
<path d="M110.271 142.091C108.815 142.299 108.569 142.545 107.85 144.17C106.904 146.193 105.466 149.595 103.915 153.66H103.139C101.891 150.333 100.623 147.27 99.28 144.076C98.6557 142.507 98.4476 142.318 96.9531 142.072V141.335H102.761V142.072C101.266 142.28 101.191 142.469 101.645 143.66C102.345 145.55 103.48 148.442 104.237 150.295C105.126 148.14 106.053 145.664 106.639 143.849C107.093 142.583 106.904 142.261 105.372 142.072V141.335H110.29V142.072L110.271 142.091Z" fill="white"/>
<path d="M111.502 153.376V152.639C113.223 152.469 113.45 152.318 113.45 150.428V144.813C113.45 143.112 113.337 142.98 111.748 142.734V142.054C113.148 141.846 114.529 141.468 115.74 140.976V150.428C115.74 152.28 115.929 152.469 117.707 152.639V153.376H111.502ZM112.959 137.271C112.959 136.44 113.659 135.797 114.453 135.797C115.248 135.797 115.891 136.44 115.891 137.271C115.891 138.046 115.267 138.727 114.434 138.727C113.678 138.727 112.978 138.046 112.978 137.271H112.959Z" fill="white"/>
<path d="M124.895 153.338C124.403 153.584 123.968 153.679 123.741 153.679C121.962 153.679 120.941 152.62 120.941 150.39V142.488H119.049L118.936 142.186L119.711 141.354H120.922V139.388L122.833 137.498L123.23 137.574V141.354H126.314C126.578 141.676 126.503 142.28 126.143 142.488H123.23V149.482C123.23 151.694 124.157 152.072 124.876 152.072C125.519 152.072 126.143 151.826 126.522 151.637L126.786 152.337L124.876 153.338H124.895Z" fill="white"/>
<path d="M137.475 153.697C137.04 153.697 136.454 153.451 136.151 153.149C135.773 152.79 135.584 152.393 135.47 151.958C134.392 152.695 133.068 153.678 132.235 153.678C130.23 153.678 128.887 152.034 128.887 150.314C128.887 148.99 129.587 148.121 131.119 147.61C132.822 147.062 134.789 146.325 135.413 145.834V145.342C135.413 143.376 134.486 142.299 133.124 142.299C132.632 142.299 132.197 142.488 131.914 142.79C131.592 143.168 131.346 143.792 131.1 144.624C130.968 145.078 130.703 145.304 130.23 145.304C129.719 145.304 129.019 144.737 129.019 144.095C129.019 143.717 129.341 143.395 129.889 142.998C130.703 142.431 132.538 141.373 134.07 141.051C134.94 141.051 135.735 141.297 136.397 141.807C137.362 142.62 137.646 143.754 137.646 145.21V150.2C137.646 151.467 138.156 151.845 138.648 151.845C138.97 151.845 139.348 151.712 139.613 151.58L139.916 152.279L137.475 153.716V153.697ZM134.07 139.936C132.916 138.31 131.592 136.571 130.797 135.532L130.93 135.286C131.176 135.154 132.689 134.851 133.124 134.946C133.616 136.193 134.278 138.159 134.846 139.558L134.07 139.936ZM135.413 146.798C134.827 147.119 133.597 147.629 133.03 147.913C131.951 148.404 131.365 148.934 131.365 149.936C131.365 151.372 132.481 152.015 133.276 152.015C133.957 152.015 134.903 151.58 135.413 151.089V146.798Z" fill="white"/>
<path d="M162.201 152.677C161.615 152.79 159.439 153.13 157.774 153.697V151.921L156.128 152.922C155.05 153.546 154.312 153.697 153.991 153.697C151.758 153.697 148.826 151.694 148.826 147.838C148.826 143.981 152.175 141.033 155.958 141.033C156.355 141.033 157.112 141.108 157.774 141.335V137.498C157.774 135.721 157.604 135.645 155.674 135.475V134.795C157.169 134.606 159.042 134.209 160.101 133.85V150.144C160.101 151.599 160.29 151.769 161.35 151.845L162.22 151.921V152.658L162.201 152.677ZM157.774 143.528C157.131 142.564 155.996 142.129 154.993 142.129C153.745 142.129 151.456 143.131 151.456 147.119C151.456 150.389 153.48 151.939 155.239 151.939C156.185 151.939 157.131 151.505 157.774 151.051V143.528Z" fill="white"/>
<path d="M174.138 150.995C172.379 153.206 170.449 153.698 169.579 153.698C166.174 153.698 164.188 150.976 164.188 147.876C164.188 146.023 164.869 144.341 166.004 143.093C167.139 141.827 168.652 141.052 170.071 141.052H170.09C172.417 141.052 174.271 143.093 174.271 145.286C174.252 145.834 174.138 146.042 173.628 146.155C173.136 146.231 169.712 146.496 166.439 146.609C166.495 150.257 168.595 151.77 170.544 151.77C171.66 151.77 172.701 151.335 173.703 150.427L174.138 151.013V150.995ZM169.39 142.091C168.198 142.091 166.987 143.207 166.609 145.456C168.103 145.456 169.598 145.437 171.149 145.38C171.641 145.38 171.792 145.248 171.83 144.832C171.83 143.396 170.903 142.073 169.428 142.073H169.409L169.39 142.091Z" fill="white"/>
<path d="M175.918 153.376V152.639C177.639 152.469 177.885 152.299 177.885 150.446V137.555C177.885 135.702 177.715 135.645 175.994 135.475V134.795C177.45 134.625 179.21 134.209 180.212 133.85V150.446C180.212 152.299 180.42 152.507 182.218 152.639V153.376H175.918Z" fill="white"/>
<path d="M183.824 153.376V152.639C185.546 152.469 185.792 152.299 185.792 150.446V137.555C185.792 135.702 185.621 135.645 183.9 135.475V134.795C185.357 134.625 187.116 134.209 188.119 133.85V150.446C188.119 152.299 188.327 152.507 190.124 152.639V153.376H183.824Z" fill="white"/>
<path d="M192.81 133.906C194.002 133.906 195.459 134.984 195.459 136.761C195.459 138.726 193.605 139.974 191.808 140.409L191.543 139.653C192.867 139.086 193.7 138.443 193.7 137.328C193.7 136.364 192.886 135.759 191.94 135.607C191.77 135.589 191.581 135.4 191.581 135.022C191.581 134.303 192.281 133.925 192.773 133.925H192.792L192.81 133.906Z" fill="white"/>
<path d="M204.862 153.698C204.427 153.698 203.841 153.452 203.538 153.149C203.16 152.79 202.97 152.393 202.857 151.959C201.779 152.696 200.454 153.679 199.622 153.679C197.617 153.679 196.273 152.034 196.273 150.314C196.273 148.991 196.973 148.121 198.506 147.611C200.208 147.063 202.176 146.326 202.8 145.834V145.343C202.8 143.377 201.873 142.299 200.511 142.299C200.019 142.299 199.584 142.488 199.3 142.791C198.979 143.169 198.733 143.793 198.487 144.624C198.354 145.078 198.09 145.305 197.617 145.305C197.106 145.305 196.406 144.738 196.406 144.095C196.406 143.717 196.727 143.396 197.276 142.999C198.09 142.432 199.925 141.373 201.457 141.052C202.327 141.052 203.122 141.297 203.784 141.808C204.749 142.621 205.032 143.755 205.032 145.21V150.201C205.032 151.467 205.543 151.845 206.035 151.845C206.357 151.845 206.735 151.713 207 151.581L207.303 152.28L204.862 153.717V153.698ZM202.8 146.798C202.214 147.12 200.984 147.63 200.416 147.913C199.338 148.405 198.752 148.934 198.752 149.936C198.752 151.373 199.868 152.015 200.662 152.015C201.343 152.015 202.289 151.581 202.8 151.089V146.798Z" fill="white"/>
<path d="M213.071 144.02C213.903 142.564 215.095 141.052 216.401 141.052C217.365 141.052 218.046 141.808 218.046 142.451C218.046 143.037 217.649 143.642 217.101 143.887C216.779 144.02 216.533 144.001 216.363 143.831C215.909 143.434 215.606 143.245 215.152 143.245C214.471 143.245 213.582 144.057 212.995 145.57V150.503C212.995 152.337 213.128 152.526 215.284 152.658V153.395H208.758V152.658C210.479 152.526 210.706 152.337 210.706 150.522V144.832C210.706 143.056 210.536 142.942 209.004 142.734V142.11C210.347 141.902 211.652 141.562 212.995 140.995V144.02H213.071Z" fill="white"/>
<path d="M225.613 153.338C225.122 153.584 224.686 153.679 224.459 153.679C222.681 153.679 221.66 152.62 221.66 150.39V142.488H219.768L219.654 142.186L220.43 141.354H221.641V139.388L223.551 137.498L223.949 137.574V141.354H227.032C227.297 141.676 227.221 142.28 226.862 142.488H223.949V149.482C223.949 151.694 224.876 152.072 225.595 152.072C226.238 152.072 226.862 151.826 227.24 151.637L227.505 152.337L225.595 153.338H225.613Z" fill="white"/>
<path d="M239.197 150.995C237.438 153.206 235.508 153.698 234.638 153.698C231.232 153.698 229.246 150.976 229.246 147.876C229.246 146.023 229.927 144.341 231.062 143.093C232.197 141.827 233.711 141.052 235.13 141.052H235.148C237.475 141.052 239.329 143.093 239.329 145.286C239.31 145.834 239.197 146.042 238.686 146.155C238.194 146.231 234.77 146.496 231.497 146.609C231.554 150.257 233.654 151.77 235.602 151.77C236.719 151.77 237.759 151.335 238.762 150.427L239.197 151.013V150.995ZM234.449 142.091C233.257 142.091 232.046 143.207 231.668 145.456C233.162 145.456 234.657 145.437 236.208 145.38C236.7 145.38 236.851 145.248 236.889 144.832C236.889 143.396 235.962 142.073 234.486 142.073H234.467L234.449 142.091Z" fill="white"/>
</svg>
