<svg width="77" height="46" viewBox="0 0 77 46" fill="none" xmlns="http://www.w3.org/2000/svg">
<path d="M8.74969 45.8853H-0.445312V43.0103C1.99969 42.9566 3.22219 42.9336 5.67469 42.8876C5.63719 30.9046 5.62219 24.9093 5.59219 12.9186C3.16969 13.4016 1.96219 13.6623 -0.445312 14.2373V5.6046C3.13969 4.51593 4.94719 4.03293 8.59219 3.19727C8.59219 4.41627 8.59219 5.0296 8.59969 6.2486C6.16969 6.76227 4.96219 7.0536 2.55469 7.6746C2.55469 8.8476 2.55469 9.43793 2.55469 10.6109C4.96219 10.0359 6.17719 9.77527 8.60719 9.29993C8.65219 21.4976 8.69719 33.6876 8.74219 45.8853H8.74969Z" fill="#F4F4F4"/>
<path d="M14.3906 45.8844C14.3306 31.2718 14.2706 16.6591 14.2031 2.04645C17.8706 1.37179 19.7231 1.09579 23.4281 0.689453C23.4281 1.97745 23.4281 2.62912 23.4356 3.91712C20.9681 4.17012 19.7381 4.33112 17.2781 4.69145C17.2781 5.95645 17.2856 6.59279 17.2931 7.85779C19.7456 7.52045 20.9831 7.38245 23.4431 7.14479C23.4431 8.43279 23.4431 9.08445 23.4506 10.3725C20.9831 10.5871 19.7531 10.7175 17.3006 11.0241C17.3531 23.6971 17.3831 30.0375 17.4356 42.7104C19.8881 42.6798 21.1106 42.6721 23.5631 42.6491C23.5631 43.9371 23.5631 44.5888 23.5706 45.8768H14.3756L14.3906 45.8844Z" fill="#F4F4F4"/>
<path d="M38.4113 42.596C38.4113 43.9147 38.4113 44.5663 38.4113 45.885H29.2163C29.1788 30.6513 29.1488 15.41 29.1113 0.176333C30.3488 0.092 30.9713 0.0536667 32.2088 0C32.2313 14.2063 32.2538 28.405 32.2763 42.6037C34.7288 42.596 35.9588 42.596 38.4113 42.596Z" fill="#F4F4F4"/>
<path d="M44.0527 45.885C44.0752 30.59 44.0977 15.295 44.1277 0C47.8477 0.168667 49.7077 0.314333 53.4127 0.743667C53.3602 15.7933 53.3077 30.843 53.2552 45.885H50.1877C50.2252 33.9787 50.2627 22.0723 50.2927 10.166C49.0552 10.074 48.4402 10.0357 47.2027 9.97433C47.1727 21.9497 47.1502 33.9173 47.1202 45.885H44.0527ZM47.2177 3.44233C47.2177 4.74567 47.2177 5.48167 47.2177 6.79267C48.4552 6.86167 49.0702 6.90767 50.3077 7.00733C50.3077 5.71167 50.3077 4.97567 50.3077 3.67233C49.0702 3.565 48.4552 3.519 47.2177 3.44233Z" fill="#F4F4F4"/>
<path d="M61.9464 45.8846C60.9789 31.0956 60.0189 16.3066 59.0664 1.51758C60.2964 1.70924 60.9039 1.81658 62.1339 2.03891C62.7114 10.9169 62.9964 15.3329 63.5739 24.1036C64.2189 15.4556 64.5489 11.1546 65.1864 2.63691C66.4089 2.88991 67.0164 3.02791 68.2239 3.30391C67.1439 17.4949 66.0789 31.6859 65.0064 45.8769H61.9389L61.9464 45.8846Z" fill="#F4F4F4"/>
<path d="M73.7148 45.8851C73.7373 32.1695 73.7598 18.4461 73.7823 4.73047C74.9823 5.0678 75.5823 5.24414 76.7823 5.60447V45.8851H73.7148Z" fill="#F4F4F4"/>
</svg>
